<svg xmlns="http://www.w3.org/2000/svg" width="1em" height="1em" viewBox="0 0 24 24"><path fill="currentColor" d="m20.545 10.295l-2.753-1.583l.001-3.3l2.753 1.582Zm-.001 3.59l-2.752-1.583V9.15l2.753 1.582zm.026 3.63l-2.786-1.6l.001-3.153l2.786 1.601zm-7.152-6.506l3.998-2.298V5.56l-3.997 2.298zm-2.475 4.983l6.457-3.711V9.128l-6.457 3.712zM6.6 22.135l10.823-6.221v-3.152l-10.822 6.22zM9.59 24l-2.77-1.593l10.784-6.201l2.77 1.593ZM3.455 13.778l2.753 1.582l-.001 3.36l-2.753-1.582Zm.001-3.59l2.752 1.582v3.153L3.454 13.34zM3.43 6.576l2.786 1.602l-.001 3.153l-2.786-1.602Zm7.151 6.486L6.584 15.36v3.152l3.997-2.298zm2.476-4.983L6.599 11.79v3.153l6.457-3.712zm4.358-6.152L6.577 8.157v3.152l10.838-6.23ZM14.534 0l2.77 1.593L6.396 7.865l-2.77-1.593Z"/></svg>